<svg xmlns="http://www.w3.org/2000/svg" viewBox="0 0 2750 856" role="img" aria-labelledby="title description">
  <title id="title">Auriqo wordmark</title>
  <desc id="description">Auriqo outlined in Cabinet Grotesk Bold</desc>
  <g fill="#17302A">
    <path d="M162 679Q102 679 68 648Q34 617 34 564Q34 472 161 422L324 353Q321 313 299.5 292Q278 271 231 271Q184 271 146.5 295.5Q109 320 87 360L20 280Q53 235 110 203.5Q167 172 242 172Q333 172 382 221.5Q431 271 431 361V544Q431 573 457 573H488V669H419Q326 669 326 575V539Q313 596 272.5 637.5Q232 679 162 679ZM142 547Q142 592 202 592Q258 592 292 561.5Q326 531 326 482V430L201 486Q142 513 142 547Z"/>
    <g transform="translate(-149 0)">
    <path d="M856 680Q785 680 744.5 638.5Q704 597 704 522V183H816V488Q816 537 837 563Q858 589 911 589Q1021 589 1021 456V183H1134V670H1021V537Q1006 600 965 640Q924 680 856 680Z"/>
    <path d="M1348 670H1236V183H1348V321Q1363 257 1402 215Q1441 173 1502 173Q1549 173 1578.5 202.5Q1608 232 1608 285Q1608 345 1586 382H1471Q1502 351 1502 306Q1502 257 1456 257Q1413 257 1380.5 299.5Q1348 342 1348 402Z"/>
    <path d="M1776 114H1664V0H1776ZM1776 670H1664V183H1776Z"/>
    <path d="M2049 680Q1959 680 1906 611.5Q1853 543 1853 426Q1853 309 1905.5 240.5Q1958 172 2046 172Q2172 172 2202 313V183H2315V856H2202V540Q2172 680 2049 680ZM2091 589Q2202 589 2202 456V396Q2202 263 2091 263Q2035 263 2001 304.5Q1967 346 1967 426Q1967 506 2001 547.5Q2035 589 2091 589Z"/>
      <path d="M2622 680Q2517 680 2451.5 610Q2386 540 2386 427Q2386 313 2451.5 243Q2517 173 2622 173Q2729 173 2794.5 243Q2860 313 2860 427Q2860 540 2794.5 610Q2729 680 2622 680ZM2746 427Q2746 345 2713 305.5Q2680 266 2623 266Q2566 266 2533.5 305.5Q2501 345 2501 427Q2501 508 2533.5 547.5Q2566 587 2623 587Q2680 587 2713 547.5Q2746 508 2746 427Z"/>
    </g>
  </g>
</svg>
